<svg id="Layer_1" data-name="Layer 1" xmlns="http://www.w3.org/2000/svg" viewBox="0 0 359.9385 75.5077"><defs><style>.cls-1{fill:#110f0d;}.cls-2{fill:#801d26;}.cls-3{isolation:isolate;}</style></defs><path class="cls-1" d="M60.6479,195.7549a7.9688,7.9688,0,0,1-3.631,3.1992,10.2309,10.2309,0,0,1-4.3764.827H14.3781a10.2328,10.2328,0,0,1-4.3765-.827,7.8787,7.8787,0,0,1-4.6751-7.9918,10.2235,10.2235,0,0,1,1.3786-4.2442l19.1707-33.4857a10.24,10.24,0,0,1,2.9629-3.3362,7.96,7.96,0,0,1,9.3416.0011,10.2586,10.2586,0,0,1,2.9629,3.3387l19.17,33.4893a10.2564,10.2564,0,0,1,1.3786,4.2518,8.1233,8.1233,0,0,1-1.0442,4.7778m2.22-37.8513-25.17-14.6787a9.2647,9.2647,0,0,0-8.4325,0L4.1418,157.9036A9.3545,9.3545,0,0,0,0,165.2537v29.42a9.3638,9.3638,0,0,0,4.1512,7.35l25.17,14.6786a9.2647,9.2647,0,0,0,8.4325,0l25.1235-14.6786a9.3549,9.3549,0,0,0,4.1422-7.35v-29.42a9.3634,9.3634,0,0,0-4.1516-7.35" transform="translate(0 -142.2099)"/><path class="cls-2" d="M30.4729,155.8687c1.67-2.9175,4.4027-2.9175,6.0728,0l19.1707,33.3466c1.67,2.9175.2857,5.1612-3.0761,5.1612H14.3782c-3.3617,0-4.7457-2.2437-3.0756-5.1612Z" transform="translate(0 -142.2099)"/><g class="cls-3"><g class="cls-3"><path class="cls-1" d="M94.6113,197.56a17.5983,17.5983,0,0,1,0-35.1949,16.6017,16.6017,0,0,1,13.1187,6.07l-5.189,4.5034a11.0512,11.0512,0,0,0-7.9785-3.8672c-5.8252,0-10.3286,4.748-10.3286,10.8667,0,6.2168,4.5034,10.916,10.3286,10.916,3.2305,0,5.9229-1.664,8.1255-4.0625l5.3848,4.3076A16.83,16.83,0,0,1,94.6113,197.56Z" transform="translate(0 -142.2099)"/></g><g class="cls-3"><path class="cls-1" d="M110.5161,179.9375A17.5977,17.5977,0,1,1,128.1382,197.56,17.6317,17.6317,0,0,1,110.5161,179.9375Zm27.9507,0c0-6.4609-4.4058-11.0137-10.3286-11.0137-5.9722,0-10.3775,4.6016-10.3775,11.0137,0,6.5107,4.4053,11.0625,10.3775,11.0625C134.061,191,138.4668,186.3994,138.4668,179.9375Z" transform="translate(0 -142.2099)"/></g><g class="cls-3"><path class="cls-1" d="M151.5811,197.07V162.8052h12.4824c6.7549,0,11.0625,4.3564,11.0625,11.2583s-4.3076,11.21-11.0625,11.21h-5.5313V197.07ZM168.42,174.0635c0-3.1328-2.0068-4.8946-5.4336-4.8946h-4.4541V178.91h4.4541C166.3643,178.91,168.42,177.1963,168.42,174.0635Z" transform="translate(0 -142.2099)"/></g><path class="cls-1" d="M181.4863,197.07V162.8052h12.4815c6.7558,0,11.0634,4.3564,11.0634,11.2583s-4.3076,11.21-11.0634,11.21h-5.5313V197.07Zm16.8379-23.0068c0-3.1328-2.0068-4.8946-5.4326-4.8946h-4.4551V178.91h4.4551C196.2686,178.91,198.3242,177.1963,198.3242,174.0635Z" transform="translate(0 -142.2099)"/><path class="cls-1" d="M209.4326,179.9375A17.5977,17.5977,0,1,1,227.0547,197.56,17.6317,17.6317,0,0,1,209.4326,179.9375Zm27.95,0c0-6.4609-4.4053-11.0137-10.3281-11.0137-5.9717,0-10.377,4.6016-10.377,11.0137,0,6.5107,4.4053,11.0625,10.377,11.0625C232.9775,191,237.3828,186.3994,237.3828,179.9375Z" transform="translate(0 -142.2099)"/><path class="cls-1" d="M249.5176,197.07V162.8052h6.9512V190.707H268.56V197.07Z" transform="translate(0 -142.2099)"/><path class="cls-1" d="M273.4521,197.07V162.8052h20.8526v6.2168H280.4033v6.853h9.7412v6.168h-9.7412v8.81h13.9014V197.07Z" transform="translate(0 -142.2099)"/><path class="cls-1" d="M304.7764,197.07V169.2666h-6.56v-6.4614h20.168v6.4614h-6.56V197.07Z" transform="translate(0 -142.2099)"/><path class="cls-1" d="M326.8994,197.07V169.2666h-6.56v-6.4614h20.168v6.4614h-6.56V197.07Z" transform="translate(0 -142.2099)"/><path class="cls-1" d="M344.4219,197.07v-5.7764H348.68V168.63h-4.2578v-5.8252h15.5166V168.63H355.68v22.6635h4.2588V197.07Z" transform="translate(0 -142.2099)"/></g></svg>