<?xml version="1.0" encoding="UTF-8" standalone="no"?>
<!DOCTYPE svg PUBLIC "-//W3C//DTD SVG 1.1//EN" "http://www.w3.org/Graphics/SVG/1.1/DTD/svg11.dtd">
<svg width="100%" height="100%" viewBox="0 0 4163 874" version="1.1" xmlns="http://www.w3.org/2000/svg" xmlns:xlink="http://www.w3.org/1999/xlink" xml:space="preserve" xmlns:serif="http://www.serif.com/" style="fill-rule:evenodd;clip-rule:evenodd;stroke-linejoin:round;stroke-miterlimit:2;">
    <g transform="matrix(4.16667,0,0,4.16667,701.325,253.975)">
        <path d="M0,87.651C-2.289,91.597 -5.773,94.519 -10.077,96.53C-13.69,98.218 -17.776,98.825 -22.223,98.825L-128.414,98.825C-132.86,98.825 -136.947,98.218 -140.56,96.53C-144.864,94.519 -148.348,91.515 -150.637,87.568C-152.925,83.622 -153.927,79.085 -153.535,74.35C-153.205,70.376 -151.918,66.43 -149.709,62.571L-96.504,-30.363C-94.297,-34.22 -91.53,-37.331 -88.281,-39.622C-84.38,-42.373 -79.897,-43.824 -75.318,-43.824C-70.739,-43.824 -66.257,-42.37 -62.355,-39.619C-59.107,-37.328 -56.34,-34.21 -54.132,-30.353L-0.928,62.591C1.281,66.45 2.568,70.417 2.898,74.391C3.291,79.126 2.289,83.704 0,87.651M6.16,-17.399L-63.694,-58.137C-70.144,-61.893 -80.647,-61.893 -87.097,-58.137L-156.823,-17.399C-163.272,-13.643 -168.318,-4.464 -168.318,3L-168.318,84.651C-168.318,92.114 -163.247,101.294 -156.797,105.05L-86.943,145.788C-80.493,149.544 -69.99,149.544 -63.54,145.788L6.186,105.05C12.636,101.294 17.682,92.114 17.682,84.651L17.682,3C17.682,-4.464 12.61,-13.643 6.16,-17.399" style="fill:rgb(17,15,13);fill-rule:nonzero;"/>
    </g>
    <g transform="matrix(4.16667,0,0,4.16667,352.385,569.511)">
        <path d="M0,-98.775C4.635,-106.872 12.219,-106.872 16.854,-98.775L70.059,-6.227C74.693,1.87 70.852,8.097 61.522,8.097L-44.668,8.097C-53.998,8.097 -57.839,1.87 -53.204,-6.227L0,-98.775Z" style="fill:rgb(128,29,38);fill-rule:nonzero;"/>
    </g>
    <g transform="matrix(4.16667,0,0,4.16667,-183.335,-327.721)">
        <text x="252.78px" y="230.908px" style="font-family:'Edmondsans-Bold', 'Edmondsans';font-weight:420;font-size:135.838px;fill:rgb(17,15,13);">C<tspan x="345.285px 453.819px " y="230.908px 230.908px ">OP</tspan>POLETTI</text>
    </g>
</svg>
