<?xml version="1.0" encoding="utf-8"?>
<!-- Generator: Adobe Illustrator 26.0.3, SVG Export Plug-In . SVG Version: 6.00 Build 0)  -->
<svg version="1.1" id="Layer_1" xmlns="http://www.w3.org/2000/svg" xmlns:xlink="http://www.w3.org/1999/xlink" x="0px" y="0px"
	 viewBox="0 0 512 512" style="enable-background:new 0 0 512 512;" xml:space="preserve">
<style type="text/css">
	.st0{fill:#110F0D;}
	.st1{fill:#801D26;}
</style>
<path class="st0" d="M432,358.4c-5.5,9.2-13.7,16.4-23.5,20.7c-9,3.9-18.6,5.7-28.4,5.4H131.9c-9.7,0.3-19.4-1.5-28.4-5.4
	c-20.3-8.9-32.5-29.8-30.3-51.8c0.9-9.7,4-19.1,8.9-27.5L206.5,82.6c4.7-8.5,11.3-15.9,19.2-21.6c18.1-13.1,42.5-13.1,60.6,0
	c7.9,5.7,14.5,13.1,19.2,21.7l124.3,217.2c5,8.4,8,17.8,8.9,27.6C439.7,338.2,437.4,349,432,358.4 M446.4,112.9L283.2,17.7
	C266,9,245.6,9,228.5,17.7L65.5,112.9c-16,10.7-26,28.4-26.9,47.7v190.8c0.9,19.3,10.9,37,26.9,47.7l163.2,95.2
	c17.2,8.8,37.5,8.8,54.7,0l162.9-95.2c16-10.7,26-28.4,26.9-47.7V160.6C472.4,141.3,462.4,123.6,446.4,112.9"/>
<path class="st1" d="M236.3,99.7c10.8-18.9,28.6-18.9,39.4,0L400,316c10.8,18.9,1.9,33.5-19.9,33.5H131.9
	c-21.8,0-30.8-14.6-19.9-33.5L236.3,99.7z"/>
</svg>
