<?xml version="1.0" encoding="utf-8"?>
<!-- Generator: Adobe Illustrator 19.0.0, SVG Export Plug-In . SVG Version: 6.00 Build 0)  -->
<svg version="1.1" id="Layer_1" xmlns="http://www.w3.org/2000/svg" xmlns:xlink="http://www.w3.org/1999/xlink" x="0px" y="0px"
	 viewBox="0 0 500 500" enable-background="new 0 0 500 500" xml:space="preserve">
<path d="M443.222,105.25L278.07,8.932c-15.249-8.879-40.09-8.879-55.338,0L57.891,105.25c-15.257,8.879-27.182,30.581-27.182,48.222
	v193.055c0,17.633,11.984,39.343,27.241,48.214l165.151,96.327c15.249,8.879,40.082,8.879,55.33,0l164.849-96.327
	c15.249-8.871,27.183-30.581,27.183-48.214V153.472C470.463,135.831,458.47,114.129,443.222,105.25 M428.653,353.61
	c-5.405,9.341-13.646,16.248-23.817,20.989c-8.552,4.003-18.203,5.43-28.727,5.43H125.055c-10.516,0-20.184-1.427-28.711-5.43
	c-10.188-4.741-18.421-11.85-23.834-21.182c-5.405-9.333-7.78-20.049-6.848-31.253c0.781-9.391,3.819-18.715,9.047-27.846
	L200.492,74.601c5.22-9.122,11.758-16.482,19.436-21.895c9.231-6.504,19.831-9.936,30.657-9.936c10.826,0,21.426,3.441,30.649,9.945
	c7.679,5.413,14.217,12.781,19.436,21.904L426.462,294.37c5.228,9.122,8.266,18.496,9.047,27.887
	C436.433,333.469,434.066,344.287,428.653,353.61"/>
<path id="XMLID_1_" fill="#801228" d="M230.48,90.447c11.061-19.327,29.152-19.327,40.213,0l126.937,220.811
	c11.061,19.318,1.897,34.182-20.369,34.182H123.903c-22.266,0-31.421-14.864-20.369-34.182L230.48,90.447z"/>
</svg>
