<?xml version="1.0" encoding="utf-8"?>
<!-- Generator: Adobe Illustrator 19.0.0, SVG Export Plug-In . SVG Version: 6.00 Build 0)  -->
<svg version="1.1" id="Layer_1" xmlns="http://www.w3.org/2000/svg" xmlns:xlink="http://www.w3.org/1999/xlink" x="0px" y="0px"
	 viewBox="-457 481 44 40" style="enable-background:new -457 481 44 40;" xml:space="preserve">
<style type="text/css">
	.st0{fill:#120103;}
</style>
<title>LinkedIn-black</title>
<desc>Created with Sketch.</desc>
<g id="Icons">
	<g id="Black" transform="translate(-702.000000, -265.000000)">
		<path id="LinkedIn" class="st0" d="M289,786h-9.7v-14.1c0-3.7-1.5-6.2-4.9-6.2c-2.6,0-4,1.7-4.6,3.3c-0.2,0.6-0.2,1.4-0.2,2.2V786
			h-9.6c0,0,0.1-24.9,0-27.2h9.6v4.3c0.6-1.9,3.6-4.5,8.6-4.5c6.1,0,10.9,3.9,10.9,12.3V786L289,786z M250.2,755.4L250.2,755.4
			c-3.2,0-5.2-2.1-5.2-4.7c0-2.7,2.1-4.7,5.2-4.7c3.2,0,5.1,2,5.2,4.7C255.4,753.3,253.4,755.4,250.2,755.4L250.2,755.4L250.2,755.4
			z M246.1,758.8h8.6V786h-8.6V758.8L246.1,758.8z"/>
	</g>
</g>
</svg>
