<?xml version="1.0" encoding="utf-8"?>
<!-- Generator: Adobe Illustrator 16.0.0, SVG Export Plug-In . SVG Version: 6.00 Build 0)  -->
<!DOCTYPE svg PUBLIC "-//W3C//DTD SVG 1.1//EN" "http://www.w3.org/Graphics/SVG/1.1/DTD/svg11.dtd">
<svg version="1.1" id="Layer_1" xmlns="http://www.w3.org/2000/svg" xmlns:xlink="http://www.w3.org/1999/xlink" x="0px" y="0px"
	 width="1000px" height="1116px" viewBox="0 0 1000 1116" enable-background="new 0 0 1000 1116" xml:space="preserve">
<g>
	<defs>
		<rect id="SVGID_1_" y="58" width="1000" height="1000"/>
	</defs>
	<clipPath id="SVGID_2_">
		<use xlink:href="#SVGID_1_"  overflow="visible"/>
	</clipPath>
</g>
<g>
	<path fill="#120103" d="M933.76,231.965L562.367,15.693c-34.243-19.94-90.275-19.94-124.517,0L66.457,231.965
		C32.215,251.904,4.198,300.64,4.198,340.264v433.472c0,39.625,28.017,88.358,62.259,108.299l371.394,216.271
		c34.242,19.941,90.273,19.941,124.517,0L933.76,882.035c34.243-19.94,62.259-68.674,62.259-108.299V340.264
		C996.019,300.64,968.003,251.904,933.76,231.965 M899.965,789.663c-12.147,20.954-30.647,37.56-53.5,48.239
		c-19.178,8.962-40.873,13.281-64.479,13.281H218.232c-23.607,0-45.303-4.319-64.481-13.281
		c-22.85-10.68-41.35-27.174-53.498-48.125c-12.149-20.953-17.469-45.312-15.386-70.45c1.75-21.098,8.583-42.184,20.311-62.673
		l282.456-493.441c11.721-20.478,26.41-37.027,43.658-49.192c20.71-14.604,44.507-22.323,68.817-22.323
		c24.311,0,48.107,7.712,68.818,22.318c17.247,12.163,31.935,28.705,43.657,49.183l282.453,493.427
		c11.73,20.489,18.562,41.547,20.312,62.645C917.433,744.408,912.114,768.711,899.965,789.663"/>
	<path fill="#801423" d="M455.37,201.986c24.605-42.987,64.87-42.987,89.477,0l282.456,493.216
		c24.606,42.987,4.213,77.934-45.317,77.934H218.232c-49.531,0-69.924-34.946-45.317-77.934L455.37,201.986z"/>
</g>
</svg>
