<?xml version="1.0" encoding="utf-8"?>
<!-- Generator: Adobe Illustrator 19.0.0, SVG Export Plug-In . SVG Version: 6.00 Build 0)  -->
<svg version="1.1" id="Layer_1" xmlns="http://www.w3.org/2000/svg" xmlns:xlink="http://www.w3.org/1999/xlink" x="0px" y="0px"
	 viewBox="0 0 960 123.6" style="enable-background:new 0 0 960 123.6;" xml:space="preserve">
<style type="text/css">
	.st0{fill:#F0EEEB;}
</style>
<g id="XMLID_6_">
	<path id="XMLID_9_" class="st0" d="M60.9,120.9c-33.6,0-59.9-27.1-59.9-60.5C1.1,27.2,27.6,0,60.9,0C79.8,0,94.6,7.6,106,20.9
		L88.2,36.3C80.8,28.6,71.7,23,60.8,23c-20,0-35.5,16.3-35.5,37.3c0,21.4,15.5,37.5,35.5,37.5c11.1,0,20.3-5.7,27.9-14l18.5,14.8
		C95.9,112.2,81.1,120.9,60.9,120.9z"/>
	<path id="XMLID_11_" class="st0" d="M116.3,69.8c-5.9-38.5,25.2-72,63.5-69.7c30.2,1.8,54.8,26.3,56.6,56.6
		c2.3,38.3-31.2,69.5-69.7,63.5C140.9,116.2,120.3,95.6,116.3,69.8z M211.6,60.4c0-22.2-15.1-37.8-35.5-37.8
		c-20.5,0-35.7,15.8-35.7,37.8c0,22.4,15.1,38,35.7,38C196.5,98.4,211.6,82.6,211.6,60.4z"/>
	<path id="XMLID_14_" class="st0" d="M256.7,119.2V1.5h42.9c23.2,0,38,15,38,38.7s-14.8,38.5-38,38.5h-19v40.5H256.7z M314.5,40.2
		c0-10.8-6.9-16.8-18.7-16.8h-15.3v33.5h15.3C307.5,56.8,314.5,51,314.5,40.2z"/>
	<path id="XMLID_17_" class="st0" d="M359.4,119.2V1.5h42.9c23.2,0,38,15,38,38.7s-14.8,38.5-38,38.5h-19v40.5H359.4z M417.3,40.2
		c0-10.8-6.9-16.8-18.7-16.8h-15.3v33.5h15.3C410.2,56.8,417.3,51,417.3,40.2z"/>
	<path id="XMLID_20_" class="st0" d="M456.2,69.8c-5.9-38.5,25.2-72,63.5-69.7c30.2,1.8,54.8,26.4,56.6,56.6
		c2.3,38.3-31.2,69.5-69.7,63.5C480.7,116.2,460.2,95.6,456.2,69.8z M551.5,60.4c0-22.2-15.1-37.8-35.5-37.8
		c-20.5,0-35.7,15.8-35.7,37.8c0,22.4,15.1,38,35.7,38C536.3,98.4,551.5,82.6,551.5,60.4z"/>
	<path id="XMLID_23_" class="st0" d="M593.2,119.2V1.5H617v95.9h41.5v21.9H593.2z"/>
	<path id="XMLID_25_" class="st0" d="M675.4,119.2V1.5H747v21.4h-47.8v23.5h33.5v21.2h-33.5v30.3H747v21.4H675.4z"/>
	<polygon id="XMLID_34_" class="st0" points="960,23.7 960,1.5 944.8,1.5 898.9,1.5 898.9,1.5 829.8,1.5 829.6,1.5 760.5,1.5 
		760.5,23.7 783,23.7 783,119.2 807.2,119.2 807.2,23.7 829.6,23.7 829.8,23.7 852.1,23.7 852.1,119.2 876.4,119.2 876.4,23.7 
		898.9,23.7 898.9,23.7 921.3,23.7 921.3,97.9 906.7,97.9 906.7,119.2 922,119.2 944,119.2 960,119.2 960,97.9 945.4,97.9 
		945.4,23.7 	"/>
</g>
</svg>
